<svg width="27" height="18" viewBox="0 0 27 18" fill="none" xmlns="http://www.w3.org/2000/svg">
<path d="M26.75 9C26.75 11.3757 25.3056 13.5571 22.9073 15.1559C20.5107 16.7537 17.1854 17.75 13.5 17.75C9.81455 17.75 6.48931 16.7537 4.09273 15.1559C1.69441 13.5571 0.25 11.3757 0.25 9C0.25 6.62431 1.69441 4.44293 4.09273 2.84405C6.48931 1.24633 9.81455 0.25 13.5 0.25C17.1854 0.25 20.5107 1.24633 22.9073 2.84405C25.3056 4.44293 26.75 6.62431 26.75 9Z" fill="#C4C4C4" stroke="black" stroke-width="0.5"/>
<path d="M13.0343 15V3H13.4808V15H13.0343Z" fill="#BA0707"/>
<path d="M21 10.5587C21 10.7865 20.971 10.9858 20.913 11.1566C20.855 11.3236 20.7756 11.466 20.6749 11.5836C20.5741 11.7013 20.4566 11.7981 20.3223 11.874C20.191 11.9461 20.0506 12.0031 19.901 12.0448C19.7544 12.0828 19.6033 12.1094 19.4476 12.1246C19.295 12.1397 19.1469 12.1473 19.0034 12.1473H16.8008V11.9822C16.9473 11.9822 17.0633 11.9708 17.1488 11.948C17.2374 11.9215 17.3045 11.8778 17.3503 11.8171C17.3961 11.7526 17.4266 11.6652 17.4419 11.5552C17.4572 11.4413 17.4648 11.297 17.4648 11.1224V7.35302C17.4648 7.17082 17.4587 7.02467 17.4465 6.91459C17.4343 6.80071 17.4053 6.71151 17.3595 6.64697C17.3137 6.58244 17.2465 6.53879 17.158 6.51601C17.0695 6.49324 16.9504 6.48185 16.8008 6.48185V6.32811H18.8157C18.9561 6.32811 19.1027 6.33571 19.2553 6.35089C19.411 6.36607 19.5621 6.39454 19.7086 6.4363C19.8552 6.47426 19.9941 6.5293 20.1254 6.60142C20.2566 6.67355 20.3711 6.76845 20.4688 6.88612C20.5695 7 20.6489 7.14045 20.7069 7.30747C20.7649 7.4707 20.7939 7.66429 20.7939 7.88826C20.7939 8.05148 20.771 8.20142 20.7252 8.33808C20.6825 8.47473 20.623 8.5981 20.5467 8.70818C20.4703 8.81447 20.3803 8.90747 20.2765 8.98719C20.1727 9.0669 20.0612 9.12954 19.9422 9.17509C20.0979 9.20925 20.2398 9.2624 20.3681 9.33452C20.4963 9.40285 20.6077 9.49395 20.7023 9.60783C20.797 9.71791 20.8703 9.85267 20.9222 10.0121C20.974 10.1677 21 10.3499 21 10.5587ZM20.0612 7.8427C20.0612 7.61495 20.0216 7.42325 19.9422 7.26762C19.8659 7.11198 19.7651 6.98671 19.64 6.89181C19.5178 6.79312 19.3789 6.72289 19.2232 6.68114C19.0706 6.63938 18.9164 6.6185 18.7607 6.6185C18.6539 6.6185 18.547 6.6261 18.4402 6.64128C18.3364 6.65267 18.2326 6.67355 18.1288 6.70391V8.94164C18.2387 8.972 18.3486 8.98909 18.4585 8.99288C18.5715 8.99668 18.6814 8.99858 18.7882 8.99858C18.95 8.99858 19.1072 8.98339 19.2599 8.95302C19.4125 8.91886 19.5484 8.85813 19.6674 8.77082C19.7865 8.68351 19.8811 8.56584 19.9513 8.41779C20.0246 8.26975 20.0612 8.07805 20.0612 7.8427ZM20.2032 10.6214C20.2032 10.3708 20.1589 10.162 20.0704 9.99502C19.9819 9.8242 19.8674 9.68754 19.727 9.58505C19.5896 9.48256 19.4339 9.41044 19.2599 9.36868C19.0859 9.32313 18.9134 9.30036 18.7424 9.30036C18.6447 9.30036 18.5425 9.30225 18.4356 9.30605C18.3318 9.30605 18.2295 9.31554 18.1288 9.33452V11.726C18.2631 11.7639 18.3959 11.7943 18.5272 11.8171C18.6585 11.8361 18.7928 11.8456 18.9302 11.8456C19.0859 11.8456 19.2385 11.8247 19.3881 11.7829C19.5407 11.7374 19.6766 11.6671 19.7956 11.5722C19.9178 11.4735 20.0155 11.3464 20.0887 11.1907C20.165 11.0351 20.2032 10.8453 20.2032 10.6214Z" fill="#BA0707"/>
<path d="M9.58844 9.20925C9.58844 9.62301 9.53348 10.0159 9.42358 10.3879C9.31368 10.7599 9.15798 11.0883 8.9565 11.373C8.75806 11.6539 8.51689 11.8778 8.23297 12.0448C7.95211 12.2081 7.63766 12.2897 7.28964 12.2897C6.94161 12.2897 6.62564 12.2081 6.34173 12.0448C6.06087 11.8816 5.81969 11.6614 5.6182 11.3843C5.41977 11.1034 5.26712 10.777 5.16027 10.405C5.05343 10.033 5 9.63819 5 9.22064C5 8.79929 5.05648 8.4064 5.16943 8.04199C5.28544 7.67378 5.44724 7.35492 5.65484 7.08541C5.86243 6.8121 6.10971 6.59763 6.39668 6.44199C6.68365 6.28256 6.99962 6.20284 7.34459 6.20284C7.68346 6.20284 7.99027 6.28446 8.26502 6.44768C8.53978 6.60712 8.77485 6.82538 8.97023 7.10249C9.16867 7.3758 9.32131 7.69466 9.42816 8.05907C9.53501 8.42349 9.58844 8.80688 9.58844 9.20925ZM8.8008 9.26619C8.8008 9.05362 8.79164 8.83725 8.77332 8.61708C8.75806 8.39691 8.72906 8.18434 8.68632 7.97936C8.64358 7.77437 8.58557 7.58268 8.51231 7.40427C8.43904 7.22586 8.34593 7.07022 8.23297 6.93736C8.12001 6.8045 7.98416 6.70012 7.82541 6.6242C7.66667 6.54448 7.48197 6.50462 7.27132 6.50462C7.07594 6.50462 6.90345 6.54448 6.75386 6.6242C6.60733 6.70012 6.47911 6.8045 6.3692 6.93736C6.2593 7.07022 6.16772 7.22586 6.09445 7.40427C6.02118 7.58268 5.96165 7.77248 5.91586 7.97366C5.87312 8.17105 5.84259 8.37604 5.82427 8.58861C5.80595 8.79739 5.79679 9.00047 5.79679 9.19786C5.79679 9.39146 5.80595 9.59454 5.82427 9.80712C5.84259 10.0197 5.87464 10.2285 5.92044 10.4334C5.96623 10.6384 6.02576 10.8339 6.09903 11.0199C6.17229 11.2059 6.26388 11.3692 6.37378 11.5096C6.48369 11.6501 6.61343 11.762 6.76302 11.8455C6.91261 11.9291 7.0851 11.9708 7.28048 11.9708C7.48502 11.9708 7.66361 11.9329 7.81626 11.8569C7.97195 11.781 8.10628 11.6785 8.21923 11.5495C8.33219 11.4166 8.4253 11.2629 8.49857 11.0883C8.57489 10.9098 8.63442 10.7219 8.67716 10.5246C8.72295 10.3234 8.75501 10.1165 8.77332 9.90391C8.79164 9.68754 8.8008 9.47497 8.8008 9.26619Z" fill="#BA0707"/>
</svg>
