<svg width="71" height="92" viewBox="0 0 71 92" fill="none" xmlns="http://www.w3.org/2000/svg">
<path d="M0 66.0845V23.4535C0 18.8751 12.1503 20.6028 16.9048 15.8516C23.244 9.63192 21.5007 0.086385 31.221 0V18.2704C26.8891 18.3568 24.0365 20.3437 22.6629 24.231C22.4516 24.8357 22.346 25.2676 22.346 25.5268V66.0845C22.346 69.6263 24.7232 72.0451 29.4777 73.3408C30.2173 73.5136 30.7455 73.6 31.0625 73.6V92C25.0402 92 19.0179 90.2291 12.9955 86.6873C4.4375 81.5042 0.105655 74.6366 0 66.0845ZM39.779 92V73.6C41.4695 73.6 43.3713 72.8657 45.4844 71.3972C47.4918 69.9286 48.5484 68.1577 48.654 66.0845V25.5268C48.654 23.9718 47.756 22.3305 45.9598 20.6028C44.2693 19.1343 42.2091 18.3568 39.779 18.2704V0C50.4501 0 59.0082 3.75775 65.4531 11.2732C69.151 15.5925 71 19.6526 71 23.4535V66.0845C71 75.6732 48.654 66.0845 55.3103 88.1127C49.8162 90.7042 44.6391 92 39.779 92Z" fill="black"/>
</svg>